<?xml version="1.0" standalone="no"?>
<!DOCTYPE svg PUBLIC "-//W3C//DTD SVG 1.1//EN" "http://www.w3.org/Graphics/SVG/1.1/DTD/svg11.dtd" >
<svg xmlns="http://www.w3.org/2000/svg">
<metadata>
This is a custom SVG webfont generated by Fontspring.
Designer    : Slobodan Jelesijevic
Foundry     : Tour De Force  Slobodan Jelesijevic
Foundry URL : httpwwwtourdefontscom
</metadata>
<defs>
<font id="OblikBold" horiz-adv-x="581" >
<font-face units-per-em="1000" ascent="800" descent="-200" />
<missing-glyph horiz-adv-x="301" />
<glyph unicode=" "  horiz-adv-x="301" />
<glyph unicode="&#x09;" horiz-adv-x="301" />
<glyph unicode="&#xa0;" horiz-adv-x="301" />
<glyph unicode="!" horiz-adv-x="321" d="M95 700h131l-15 -530h-100zM223 0v126h-125v-126h125z" />
<glyph unicode="&#x22;" horiz-adv-x="395" d="M65 700h88l-7 -214h-76zM242 700h88l-7 -214h-76z" />
<glyph unicode="#" horiz-adv-x="617" d="M153 405h-118v89h132l32 223h90l-33 -223h144l32 223h91l-32 -223h91v-89h-104l-16 -107h120v-89h-133l-31 -223h-93l34 223h-143l-33 -223h-91l33 223h-90v89h103zM229 298h142l16 107h-144z" />
<glyph unicode="$" horiz-adv-x="556" d="M241 449v138q-79 -12 -79 -65q0 -43 79 -73zM241 -96v85q-96 0 -207 36v123h16q107 -37 191 -37v194q-58 18 -96 36q-54 27 -84 74t-30 104q0 80 68 139q55 45 142 52v86h73v-87q77 -7 165 -32v-122h-18q-60 24 -147 32v-163q92 -31 132 -57q79 -56 79 -164 q0 -91 -69 -148q-58 -48 -142 -61v-90h-73zM314 283v-164q81 21 80 82q-1 54 -80 82z" />
<glyph unicode="%" horiz-adv-x="804" d="M65 532q0 81 39.5 130t106.5 49t106.5 -49t39.5 -130t-39.5 -129.5t-106.5 -48.5t-106.5 48.5t-39.5 129.5zM141 531q0 -45 18.5 -77.5t51.5 -32.5t51.5 32.5t18.5 77.5t-18.5 77.5t-51.5 32.5t-51.5 -32.5t-18.5 -77.5zM447 167q0 81 39.5 130t106.5 49t106.5 -49 t39.5 -130t-39.5 -129.5t-106.5 -48.5t-106.5 48.5t-39.5 129.5zM523 166q0 -45 18.5 -77.5t51.5 -32.5t51.5 32.5t18.5 77.5t-18.5 77.5t-51.5 32.5t-51.5 -32.5t-18.5 -77.5zM239 -13h-75l390 729h72z" />
<glyph unicode="&#x26;" horiz-adv-x="679" d="M275 103q85 -4 128 41l-145 177q-30 -18 -43.5 -28.5t-28 -32.5t-15.5 -50q-2 -46 27 -76t77 -31zM312 605q-27 1 -43 -17.5t-16 -43.5q0 -6 1 -11.5t4.5 -12l5.5 -10.5t7.5 -11l8 -10l8.5 -10t8 -9l33.5 19.5t22 20.5t12.5 31q2 24 -12 43.5t-40 20.5zM479 541 q-1 -38 -18 -68.5t-35.5 -46.5t-57.5 -43l97 -119q9 26 9 70h116q-5 -100 -36 -177l130 -158h-160l-48 56q-81 -66 -182 -66q-100 0 -169 59t-69 157q0 125 128 203q0 2 -4 6q-52 66 -51 130q3 72 45 114q48 53 138 53q81 0 126 -51q44 -51 41 -119z" />
<glyph unicode="'" horiz-adv-x="218" d="M65 700h88l-7 -214h-76z" />
<glyph unicode="(" horiz-adv-x="367" d="M352 701v-84q-82 -55 -124 -162.5t-41 -218.5q0 -118 40 -225.5t125 -164.5v-88q-148 55 -219.5 183.5t-66.5 294.5q2 80 18.5 149.5t49.5 132t88.5 109.5t129.5 74z" />
<glyph unicode=")" horiz-adv-x="367" d="M15 617v84q74 -27 129.5 -74t88.5 -109.5t49.5 -132t18.5 -149.5q5 -166 -66.5 -294.5t-219.5 -183.5v88q85 57 125 164.5t40 225.5q1 111 -41 218.5t-124 162.5z" />
<glyph unicode="*" horiz-adv-x="507" d="M210 340l14 147l-118 -79l-41 75l129 53l-129 54l41 75l118 -80l-13 149h85l-13 -149l117 80l42 -75l-128 -54l128 -53l-42 -75l-117 79l12 -147h-85z" />
<glyph unicode="+" horiz-adv-x="597" d="M343 113h-89v188h-189v91h189v189h89v-189h189v-91h-189v-188z" />
<glyph unicode="," horiz-adv-x="346" d="M45 -162l79 295h137l-130 -295h-86z" />
<glyph unicode="-" horiz-adv-x="481" d="M416 209h-351v107h351v-107z" />
<glyph unicode="." horiz-adv-x="324" d="M229 133v-133h-134v133h134z" />
<glyph unicode="/" horiz-adv-x="295" d="M79 -13h-74l209 728h76z" />
<glyph unicode="0" horiz-adv-x="685" d="M45 350q0 164 81.5 262.5t215.5 98.5q135 0 216.5 -98.5t81.5 -262.5t-81.5 -262.5t-216.5 -98.5q-134 0 -215.5 98.5t-81.5 262.5zM175 349q0 -114 45 -181t121 -67q77 0 122 67t45 181t-45.5 181.5t-121.5 67.5t-121 -67.5t-45 -181.5z" />
<glyph unicode="1" horiz-adv-x="425" d="M330 0h-127v576l-104 -92l-74 83l116 98q49 42 103 42q86 0 86 -95v-612z" />
<glyph unicode="2" horiz-adv-x="496" d="M450 110v-110h-435v82l272 342q33 45 33 79q1 45 -34.5 71.5t-80.5 26.5q-89 0 -135 -42h-15v115q81 37 167 37q115 -2 181 -72q48 -52 48 -136t-52 -143l-216 -250h267z" />
<glyph unicode="3" horiz-adv-x="502" d="M31 141q81 -46 165 -44q46 -1 85.5 30.5t39.5 78.5q0 40 -26.5 66t-60.5 34.5t-76 8.5h-53v109h36q28 0 48.5 2.5t45.5 10t38.5 26t13.5 47.5q0 42 -34 67.5t-76 25.5q-85 0 -133 -34h-16v112q82 30 153 30q59 0 111.5 -20t88.5 -64.5t36 -105.5q0 -45 -26.5 -87.5 t-70.5 -56.5q54 -17 93 -64.5t39 -106.5q0 -105 -78 -161t-192 -56q-78 0 -167 36v116h16z" />
<glyph unicode="4" horiz-adv-x="561" d="M338 557l-190 -285h190v285zM465 609v-337h71v-115h-71v-157h-127v157h-259q-45 0 -65 36q-18 34 1 68l265 399q31 47 100 47q40 0 62.5 -28.5t22.5 -69.5z" />
<glyph unicode="5" horiz-adv-x="515" d="M184 590v-123q103 0 168 -33q56 -30 87 -84t31 -120q0 -110 -83.5 -175.5t-200.5 -65.5q-57 0 -151 35v122h16q62 -44 156 -44q60 0 97.5 35.5t37.5 97.5q0 65 -52 94.5t-126 29.5h-107v341h392v-110h-265z" />
<glyph unicode="6" horiz-adv-x="591" d="M514 557h-16q-60 44 -143 44q-60 0 -105 -38.5t-63 -99.5q41 40 132 40t160 -66q72 -75 72 -188q0 -112 -72 -187q-68 -73 -180 -73q-63 0 -117 30.5t-87 86.5q-53 87 -49 224q2 140 65 243q84 136 245 138q77 0 158 -42v-112zM291 392q-57 -3 -86.5 -45.5t-29.5 -106.5 q0 -60 39.5 -101.5t98.5 -39.5q53 8 80.5 48.5t27.5 99.5q0 61 -34 104.5t-96 40.5z" />
<glyph unicode="7" horiz-adv-x="448" d="M39 0l252 590h-286v110h336q65 0 85 -44q13 -29 -7 -79l-242 -577h-138z" />
<glyph unicode="8" horiz-adv-x="637" d="M319 711q99 0 164.5 -53t66.5 -143q1 -48 -23.5 -86.5t-70.5 -52.5q57 -15 90.5 -61t35.5 -106q-6 -106 -80.5 -163t-179.5 -57q-106 0 -186.5 59t-80.5 159q0 60 34.5 107t93.5 62q-44 11 -70 53t-25 86q1 93 68 144.5t163 51.5zM214 509q0 -42 30.5 -68.5t74.5 -26.5 t74.5 26.5t30.5 68.5q0 45 -30 70t-75 25t-75 -25t-30 -70zM184 209q0 -53 38 -83t96 -30q59 0 97 30t38 83q0 50 -39 82t-96 32t-95.5 -32t-38.5 -82z" />
<glyph unicode="9" horiz-adv-x="591" d="M78 143h16q60 -44 143 -44q60 0 105 38.5t63 99.5q-41 -40 -132 -40t-160 66q-72 75 -72 188q0 112 72 187q68 73 180 73q63 0 117 -30.5t87 -86.5q53 -87 49 -224q-2 -140 -65 -243q-84 -136 -245 -138q-77 0 -158 42v112zM301 308q57 3 86.5 45.5t29.5 106.5 q0 60 -39.5 101.5t-98.5 39.5q-53 -8 -80.5 -48.5t-27.5 -99.5q0 -61 34 -104.5t96 -40.5z" />
<glyph unicode=":" horiz-adv-x="324" d="M229 133v-133h-134v133h134zM229 524v-134h-134v134h134z" />
<glyph unicode=";" horiz-adv-x="346" d="M45 -162l79 295h137l-130 -295h-86zM261 524v-134h-134v134h134z" />
<glyph unicode="&#x3c;" horiz-adv-x="569" d="M504 495l-321 -144l321 -145v-100l-439 198v91l439 200v-100z" />
<glyph unicode="=" horiz-adv-x="598" d="M533 396h-468v90h468v-90zM533 214h-468v90h468v-90z" />
<glyph unicode="&#x3e;" horiz-adv-x="569" d="M386 351l-321 144v100l439 -200v-91l-439 -198v100z" />
<glyph unicode="?" horiz-adv-x="497" d="M241 167h-117v89q4 68 26 106q5 9 11 16.5t14.5 15t12.5 11.5t16 11t14.5 9t18 10l17.5 9q56 34 56 81q0 35 -30 52t-68 17q-81 0 -137 -50h-20v114q91 53 170 53q82 0 144 -46q68 -55 68 -138q0 -47 -21 -87.5t-58 -64.5q-12 -9 -47 -26.5t-47 -29.5q-23 -21 -23 -76 v-76zM245 125v-125h-125v125h125z" />
<glyph unicode="@" horiz-adv-x="1042" d="M425 146q-1 -30 18 -43.5t50 -13.5q48 0 101 31v100q-18 -3 -57.5 -9t-59.5 -10q-52 -10 -52 -55zM916 0h-321v30q-46 -42 -121 -42q-71 0 -115.5 40.5t-44.5 110.5q3 56 35.5 95t94.5 49l151 25q-3 30 -37 44.5t-67 14.5q-68 0 -121 -28h-14v104q78 22 137 22 q87 0 146.5 -37t59.5 -119v-252h171q39 78 39 173q0 173 -100 287.5t-276 114.5q-178 0 -290 -116t-112 -286t109 -283t293 -117q82 -3 157 24l29 -63q-81 -32 -184 -29q-144 3 -252 66t-163 167.5t-55 234.5t57.5 236t165.5 169.5t247 63.5q137 0 239 -63.5t152.5 -169 t50.5 -236.5q0 -123 -61 -230z" />
<glyph unicode="A" horiz-adv-x="682" d="M337 544l-94 -262h188zM5 0l242 646q10 28 36 45t57 17t56 -17t36 -45l245 -646h-143l-60 163h-274l-61 -163h-134z" />
<glyph unicode="B" horiz-adv-x="671" d="M90 0v564q0 56 39.5 96t96.5 40h74h21.5h23.5t22 -0.5t23.5 -1.5t21.5 -2.5t22.5 -4l20.5 -6t22 -8.5t19 -11q88 -57 88 -152q0 -50 -23.5 -88.5t-71.5 -50.5q127 -33 127 -163q0 -80 -53 -139q-66 -73 -219 -73h-254zM477 220q0 24 -8.5 41.5t-21 27t-33 15t-38.5 7 t-43 1.5h-109v-192h122q65 0 97.5 19t33.5 81zM224 545v-121h96q23 0 35 0.5t32.5 4.5t31.5 11.5t19.5 23.5t8.5 38q0 46 -30 62t-94 16h-68q-13 0 -22 -10t-9 -25z" />
<glyph unicode="C" horiz-adv-x="599" d="M387 711q86 -1 184 -36v-128h-16q-75 41 -168 41q-94 2 -151 -65q-52 -65 -52 -173q0 -111 54 -175q57 -65 151 -63q92 0 167 41h18v-127q-98 -36 -184 -37q-149 0 -236 86q-109 103 -109 279q0 149 90 252q93 105 252 105z" />
<glyph unicode="D" horiz-adv-x="708" d="M225 546v-423h94q36 0 60 2t54.5 13.5t48.5 32.5q44 52 44 180q0 108 -31 159q-23 41 -63.5 54t-99.5 13h-75q-13 0 -22.5 -9t-9.5 -22zM226 700h100q100 -1 168 -27.5t112 -94.5q59 -88 59 -222q0 -153 -72 -250q-82 -106 -257 -106h-246v565q0 56 40 95.5t96 39.5z" />
<glyph unicode="E" horiz-adv-x="590" d="M90 0v565q0 56 39.5 95.5t95.5 39.5h350v-122h-318q-13 0 -22.5 -9t-9.5 -22v-120h259v-117h-259v-188h350v-122h-485z" />
<glyph unicode="F" horiz-adv-x="582" d="M90 565q0 56 40 95.5t96 39.5h351v-122h-320q-13 0 -22.5 -9t-9.5 -22v-121h259v-121h-259v-305h-135v565z" />
<glyph unicode="G" horiz-adv-x="690" d="M414 110q43 0 76 10v135h-125v120h260v-352q-119 -33 -230 -34q-170 0 -264 108q-86 99 -86 253q0 131 68 227q91 132 276 134q98 0 201 -36v-124h-17q-75 38 -178 38q-111 0 -168 -80q-43 -62 -43 -160q0 -113 59 -176t171 -63z" />
<glyph unicode="H" horiz-adv-x="752" d="M524 427v273h133v-700h-133v305h-294v-305h-135v700h135v-273h294z" />
<glyph unicode="I" horiz-adv-x="325" d="M230 700v-700h-135v700h135z" />
<glyph unicode="J" horiz-adv-x="340" d="M115 578h-78v122h213v-574q0 -120 -49.5 -184t-159.5 -64h-36v122h32q46 1 62 25t16 75v478z" />
<glyph unicode="K" horiz-adv-x="696" d="M230 425v-1l263 276h174l-288 -288l322 -412h-171l-243 321l-57 -59v-262h-135v700h135v-275z" />
<glyph unicode="L" horiz-adv-x="497" d="M90 137v563h135v-546q0 -13 9 -22.5t22 -9.5h236v-122h-264q-57 0 -97.5 40.5t-40.5 96.5z" />
<glyph unicode="M" horiz-adv-x="891" d="M509 0h-132l-151 462l-25 -462h-121l32 618q1 36 26.5 62.5t61.5 27.5q34 1 61 -19.5t38 -52.5l148 -448l143 448q22 71 94 71q40 0 66 -24.5t29 -65.5l32 -617h-132l-20 471z" />
<glyph unicode="N" horiz-adv-x="764" d="M176 708q59 0 98 -59l273 -428v479h122v-700h-129l-323 507v-507h-122v616q0 37 22.5 64t58.5 28z" />
<glyph unicode="O" horiz-adv-x="754" d="M46 350q0 163 92.5 262t238.5 99t239 -99t93 -262t-93 -262t-239 -99t-238.5 99t-92.5 262zM185 350q0 -110 52 -174t140 -64t140.5 64t52.5 174q0 101 -53.5 170t-139.5 69q-88 0 -140 -64.5t-52 -174.5z" />
<glyph unicode="P" horiz-adv-x="631" d="M90 0v564q0 56 40 96t96 40h93q8 0 28.5 -0.5t29.5 -1t27 -2t29.5 -4t26.5 -7t29 -11.5q52 -25 79.5 -78.5t27.5 -115.5q0 -128 -93 -185q-67 -42 -183 -42h-95v-253h-135zM225 548v-175h102q56 0 93.5 25t37.5 79q0 64 -32 84t-104 20h-80q-17 0 -17 -33z" />
<glyph unicode="Q" horiz-adv-x="752" d="M391 -11h-14q-146 0 -238.5 99t-92.5 262t92.5 262t238.5 99t239 -99t93 -262q0 -122 -54.5 -210.5t-147.5 -126.5q33 -50 51 -51q20 0 70 50l70 -82q-30 -29 -42 -39.5t-40.5 -25t-55.5 -14.5q-89 -2 -169 138zM185 350q0 -110 52 -174t140 -64t140.5 64t52.5 174 q0 101 -53.5 170t-139.5 69q-88 0 -140 -64.5t-52 -174.5z" />
<glyph unicode="R" horiz-adv-x="670" d="M457 273l195 -273h-164l-175 253h-88v-253h-135v564q0 56 40.5 96t97.5 40h91q8 0 29 -0.5t30 -1t27 -2t29.5 -4t26.5 -7t29 -11.5q52 -25 79.5 -78.5t27.5 -115.5q-2 -128 -92 -185q-27 -16 -48 -22zM225 548v-175h104q55 0 92.5 24.5t37.5 77.5q0 59 -31.5 82.5 t-104.5 23.5h-67q-13 0 -22 -10t-9 -23z" />
<glyph unicode="S" horiz-adv-x="556" d="M290 432q113 -36 156 -65q79 -56 79 -164q0 -91 -69 -148q-79 -66 -214 -66q-97 0 -208 36v123h16q107 -37 193 -37q24 0 47.5 4t48.5 13t40 28t15 45q-1 58 -90 85q-118 35 -159 55q-54 27 -84 74t-30 104q0 80 68 139q62 51 162 53q98 0 218 -34v-122h-18 q-88 34 -192 34q-40 0 -73.5 -16t-33.5 -51q0 -11 4.5 -20.5t13.5 -17.5t17.5 -14t23 -12l23.5 -9.5t25 -9t21 -7.5z" />
<glyph unicode="T" horiz-adv-x="530" d="M196 578h-191v122h520v-122h-194v-578h-135v578z" />
<glyph unicode="U" horiz-adv-x="717" d="M510 261v439h122v-397q0 -74 -10 -123.5t-43 -93.5q-37 -50 -96.5 -73.5t-124.5 -23.5q-72 0 -133.5 29t-96.5 83q-43 66 -43 202v397h135v-438q0 -70 26 -107q36 -44 118 -44q80 0 120 52q26 38 26 98z" />
<glyph unicode="V" horiz-adv-x="640" d="M325 169l180 531h130l-224 -643q-23 -63 -88 -65q-31 0 -56.5 17.5t-37.5 47.5l-224 643h144z" />
<glyph unicode="W" horiz-adv-x="892" d="M517 700l117 -484l121 484h127l-165 -640q-8 -30 -32.5 -50t-55.5 -19t-54.5 21t-31.5 51l-98 402l-92 -405q-7 -29 -30 -48.5t-54 -20.5q-33 -1 -59 19.5t-34 52.5l-166 637h138l119 -479l113 479h137z" />
<glyph unicode="X" horiz-adv-x="669" d="M615 700l-203 -314l252 -386h-160l-175 282l-176 -282h-148l253 389l-203 311h158l126 -207l130 207h146z" />
<glyph unicode="Y" horiz-adv-x="600" d="M456 700h-1h140l-227 -432v-268h-135v268l-228 432h152l149 -305z" />
<glyph unicode="Z" horiz-adv-x="554" d="M49 700h369q32 0 61 -14t41 -41q19 -46 -8 -97l-300 -426h316v-122h-503v86l345 492h-321v122z" />
<glyph unicode="[" horiz-adv-x="363" d="M215 -136h133v-104h-253v940h253v-104h-133v-732z" />
<glyph unicode="\" horiz-adv-x="295" d="M290 -13h-74l-211 728h76z" />
<glyph unicode="]" horiz-adv-x="363" d="M15 -136h133v732h-133v104h253v-940h-253v104z" />
<glyph unicode="^" horiz-adv-x="551" d="M486 368h-100l-111 244l-110 -244h-100l165 362h91z" />
<glyph unicode="_" horiz-adv-x="629" d="M634 -225h-639v90h639v-90z" />
<glyph unicode="`" horiz-adv-x="318" d="M176 562l-111 150h101l87 -150h-77z" />
<glyph unicode="a" horiz-adv-x="563" d="M169 167q0 -34 22 -50.5t57 -16.5q54 0 113 36v118q-19 -4 -63 -10t-68 -11q-61 -12 -61 -66zM366 0v48q-57 -60 -141 -60q-78 0 -130 48t-54 124q-1 69 43 115t108 55l172 25q-3 34 -43 51.5t-76 17.5q-75 0 -139 -31h-14v116q93 26 155 26q101 0 169.5 -42.5 t71.5 -134.5v-358h-122z" />
<glyph unicode="b" d="M202 131q0 -12 9 -20.5t21 -8.5h42q68 0 100 32q36 37 36 136q2 63 -23 104q-28 45 -96 48q-33 0 -89 -13v-278zM286 -11h-85q-52 0 -89 37t-37 90v617h127v-224q41 26 101 26q113 0 183 -81q51 -66 55 -184q0 -100 -39 -169q-66 -109 -216 -112z" />
<glyph unicode="c" horiz-adv-x="486" d="M455 387h-16q-44 35 -137 35q-68 0 -101 -44q-30 -41 -30 -117q0 -55 22 -95q35 -64 107 -64q87 0 141 30h15v-108q-71 -35 -158 -35q-63 0 -118.5 29t-90.5 79q-49 69 -49 165q0 118 67 193q70 80 187 80q75 0 161 -35v-113z" />
<glyph unicode="d" d="M379 131v278q-56 13 -89 13q-68 -3 -96 -48q-25 -41 -23 -104q0 -99 36 -136q32 -32 100 -32h42q12 0 21 8.5t9 20.5zM380 -11h-85q-150 3 -216 112q-40 70 -40 169q3 116 56 184q70 81 183 81q60 0 101 -26v224h127v-617q0 -53 -37 -90t-89 -37z" />
<glyph unicode="e" horiz-adv-x="570" d="M287 425q-48 0 -76.5 -30.5t-33.5 -77.5h213q-10 107 -103 108zM176 212q9 -58 55.5 -87.5t106.5 -27.5q86 2 138 33h16v-119q-74 -22 -164 -22q-131 0 -208 70q-80 73 -80 200q3 110 58 186q69 90 187 90q73 0 127 -33.5t81 -98.5q30 -73 26 -191h-343z" />
<glyph unicode="f" horiz-adv-x="344" d="M198 524h133v-110h-133v-414h-127v414h-56v110h56v15q0 97 44 145.5t137 48.5q25 0 107 -19v-112h-17q-37 20 -77 19q-28 0 -47.5 -16.5t-19.5 -48.5v-32z" />
<glyph unicode="g" horiz-adv-x="586" d="M384 391q0 13 -9 22t-21 9h-45q-65 0 -100 -34q-36 -35 -38 -135q0 -69 26 -107q30 -47 95 -47q47 0 92 12v280zM511 407v-381q0 -137 -67 -201t-202 -65q-64 0 -154 33v110h16q56 -27 139 -31q59 0 100 31.5t41 80.5v30q-43 -25 -101 -25q-115 0 -187 81q-56 71 -56 183 q0 102 40 170q66 110 221 112h81q53 0 91 -38t38 -90z" />
<glyph unicode="h" horiz-adv-x="618" d="M207 733v-242q79 44 151 44q80 0 132.5 -55t52.5 -139v-341h-127v330q0 41 -19.5 66t-59.5 25q-68 0 -130 -41v-380h-127v733h127z" />
<glyph unicode="i" horiz-adv-x="288" d="M207 524v-524h-127v524h127zM208 700v-125h-128v125h128z" />
<glyph unicode="j" horiz-adv-x="298" d="M91 414v-440q0 -56 -24.5 -78.5t-81.5 -22.5v-113q120 0 176.5 56t56.5 179v529h-192v-110h65zM217 700v-125h-128v125h128z" />
<glyph unicode="k" horiz-adv-x="587" d="M207 210v-210h-127v733h127v-377l186 168h178l-227 -196l238 -328h-157l-177 245z" />
<glyph unicode="l" horiz-adv-x="353" d="M202 732v-569q0 -62 69 -62q28 -1 76 23h16v-112q-67 -23 -107 -23q-181 0 -181 196v547h127z" />
<glyph unicode="m" horiz-adv-x="821" d="M619 0v321q0 26 -3 44.5t-17.5 35t-39.5 15.5q-36 -1 -82 -51v-365h-125v321q0 95 -57 95q-42 0 -88 -42v-374h-127v524h124v-35q46 46 101 46q81 1 131 -60q67 61 132 61q81 0 129 -56t49 -141v-339h-127z" />
<glyph unicode="n" horiz-adv-x="618" d="M356 535q83 0 135 -54t52 -141v-340h-127v327q1 40 -19 65.5t-60 25.5q-67 0 -130 -43v-375h-127v524h123v-34q90 45 153 45z" />
<glyph unicode="o" d="M40 262q0 124 69.5 198.5t181.5 74.5t180.5 -74.5t68.5 -198.5t-68.5 -198.5t-180.5 -74.5t-181.5 74.5t-69.5 198.5zM171 262q0 -73 32.5 -116.5t86.5 -43.5t86.5 43.5t32.5 116.5t-32.5 116.5t-86.5 43.5t-86.5 -43.5t-32.5 -116.5z" />
<glyph unicode="p" horiz-adv-x="586" d="M207 392v-278q56 -13 89 -13q68 3 96 48q25 41 23 104q0 99 -36 136q-32 32 -100 32h-42q-12 0 -21 -8.5t-9 -20.5zM206 534h85q150 -3 216 -112q39 -69 39 -169q-4 -118 -55 -184q-70 -81 -183 -81q-60 0 -101 26v-254h-127v647q0 53 37 90t89 37z" />
<glyph unicode="q" d="M379 114v278q0 12 -9 20.5t-21 8.5h-42q-68 0 -100 -32q-36 -37 -36 -136q-2 -63 23 -104q28 -45 96 -48q33 0 89 13zM295 534h85q52 0 89 -37t37 -90v-647h-127v254q-41 -26 -101 -26q-113 0 -183 81q-51 66 -55 184q0 100 39 169q66 109 216 112z" />
<glyph unicode="r" horiz-adv-x="359" d="M374 535v-120h-17q-36 12 -76.5 3.5t-73.5 -29.5v-389h-127v524h123v-34q88 45 171 45z" />
<glyph unicode="s" horiz-adv-x="464" d="M203 -11q-73 0 -158 26v112h16q68 -28 147 -28q96 3 96 56q0 12 -12.5 23t-21.5 15t-29 11q-112 42 -127 50q-35 18 -54.5 54t-19.5 77q0 71 54.5 111t125.5 39q70 -1 161 -28v-107h-17q-62 24 -128 24q-14 0 -29 -2t-31 -10t-16 -22q0 -11 16 -22t35 -17q13 -5 42 -14.5 t51.5 -18.5t40.5 -18q79 -39 79 -139q0 -84 -65 -128t-156 -44z" />
<glyph unicode="t" horiz-adv-x="349" d="M189 414v-247q0 -32 19.5 -48.5t49.5 -16.5q24 -1 76 21h20v-111q-67 -23 -111 -23q-181 0 -181 194v231h-57v110h57v123h127v-123h134v-110h-134z" />
<glyph unicode="u" horiz-adv-x="585" d="M243 -12q-82 0 -134.5 56t-52.5 139v341h127v-328q-1 -40 19 -65.5t60 -25.5q67 0 130 43v376h127v-524h-123v33q-90 -45 -153 -45z" />
<glyph unicode="v" horiz-adv-x="517" d="M265 153l127 371h120l-172 -477q-22 -55 -80 -57q-30 0 -52 14.5t-32 40.5l-171 479h136z" />
<glyph unicode="w" horiz-adv-x="755" d="M516 -10q-30 1 -53 16t-30 42l-57 229l-56 -227q-7 -27 -29.5 -43t-50.5 -17q-29 0 -54 16t-32 42l-144 476h128l103 -355l92 355h91l98 -367l104 367h119l-146 -476q-18 -58 -83 -58z" />
<glyph unicode="x" horiz-adv-x="558" d="M204 283l-170 241h155l99 -154l102 154h137l-172 -245l198 -279h-155l-126 194l-128 -194h-139z" />
<glyph unicode="y" horiz-adv-x="554" d="M293 172l128 352h118l-231 -637q-28 -73 -81 -100t-148 -27h-23v110q79 -1 107 9.5t46 59.5l24 66l-228 519h139z" />
<glyph unicode="z" horiz-adv-x="469" d="M434 490q11 -19 8 -41t-17 -41l-216 -298h235v-110h-419v72l251 342h-239v110h324q53 0 73 -34z" />
<glyph unicode="{" horiz-adv-x="424" d="M93 178h-78v104h78q53 0 53 51v218q4 73 39 107q43 42 133 42h81v-104h-78q-27 0 -39 -10q-12 -11 -14 -39v-220q0 -27 -17 -56t-40 -41q26 -15 41.5 -41.5t15.5 -55.5v-217q0 -27 11 -38q11 -12 42 -16h78v-102h-81q-102 0 -143 53q-25 34 -29 95v218q0 27 -12.5 39.5 t-40.5 12.5z" />
<glyph unicode="|" horiz-adv-x="273" d="M178 -240h-83v974h83v-974z" />
<glyph unicode="}" horiz-adv-x="424" d="M409 178h-78q-28 0 -40.5 -12.5t-12.5 -39.5v-218q-4 -61 -29 -95q-41 -53 -143 -53h-81v102h78q31 4 42 16q11 11 11 38v217q0 29 15.5 55.5t41.5 41.5q-23 12 -40 41t-17 56v220q-2 28 -14 39q-12 10 -39 10h-78v104h81q90 0 133 -42q35 -34 39 -107v-218q0 -51 53 -51 h78v-104z" />
<glyph unicode="~" horiz-adv-x="636" d="M65 263v100q59 66 140 66q52 0 146 -39q69 -26 91 -26q65 0 129 70v-107q-65 -62 -142 -62q-41 0 -118 32q-79 33 -116 33q-66 0 -130 -67z" />
<glyph unicode="&#xa1;" horiz-adv-x="321" d="M226 -176h-131l15 530h100zM98 398v126h125v-126h-125z" />
<glyph unicode="&#xa2;" horiz-adv-x="486" d="M276 104v316q-105 -20 -105 -159q0 -60 26.5 -103t78.5 -54zM349 -8v-88h-73v86q-118 11 -187 107q-49 69 -49 165q0 118 67 193q65 73 169 79v86h73v-89q47 -7 106 -31v-113h-16q-28 23 -90 32v-314q56 7 92 27h15v-108q-47 -24 -107 -32z" />
<glyph unicode="&#xa3;" horiz-adv-x="530" d="M161 517q13 88 81.5 141t158.5 53q57 0 114 -26v-119h-21q-30 22 -85 22q-43 0 -75.5 -24t-39.5 -66l-13 -86h169v-116h-188l-14 -106q-3 -19 -15.5 -39t-27.5 -29h310v-122h-489l-1 122q44 0 61 10.5t25 53.5l16 110h-102v116h119z" />
<glyph unicode="&#xa4;" horiz-adv-x="642" d="M577 167l-64 -63l-75 72q-53 -34 -117 -34t-117 34l-74 -72l-65 63l75 74q-35 53 -35 117t35 119l-75 73l65 64l74 -74q53 35 117 35t117 -35l75 74l64 -64l-74 -73q35 -55 35 -119t-35 -117zM230 267q38 -39 92 -39t91 39q38 38 38 91.5t-38 92.5q-37 39 -91 39t-92 -39 t-38 -92.5t38 -91.5z" />
<glyph unicode="&#xa5;" horiz-adv-x="600" d="M145 435l-140 265h152l149 -305l150 305h-1h140l-139 -265h96v-78h-137l-32 -59h169v-78h-184v-220h-135v220h-185v78h169l-31 59h-138v78h97z" />
<glyph unicode="&#xa6;" horiz-adv-x="274" d="M179 379h-84v354h84v-354zM179 -240h-84v354h84v-354z" />
<glyph unicode="&#xa7;" horiz-adv-x="537" d="M325 279q-25 16 -80 35t-76 29q-11 -28 0 -55t37 -42q23 -14 49 -25.5t62.5 -24.5t49.5 -18q9 31 -2.5 58t-39.5 43zM232 -240q-82 0 -187 36v120h20q104 -43 165 -43q54 -1 97 28t43 81q0 56 -59 82q-20 9 -79.5 31t-89.5 40q-94 61 -97 169q0 62 36 107v1 q-36 51 -36 122q1 90 63.5 145t154.5 55q93 -1 190 -36v-116h-22q-83 38 -152 38q-40 0 -77 -21.5t-37 -57.5q-1 -36 16 -53.5t55 -34.5q9 -4 78 -30.5t100 -50.5q78 -58 78 -158q0 -63 -35 -108q35 -52 35 -119q0 -111 -74 -169t-186 -58z" />
<glyph unicode="&#xa8;" horiz-adv-x="372" d="M45 582v110h108v-110h-108zM217 582v110h110v-110h-110z" />
<glyph unicode="&#xa9;" horiz-adv-x="851" d="M425 711q150 0 255.5 -106t105.5 -256q0 -149 -105.5 -254.5t-255.5 -105.5q-149 0 -254.5 105.5t-105.5 254.5q0 150 105.5 256t254.5 106zM425 643q-122 0 -207.5 -86t-85.5 -208q0 -121 85.5 -206.5t207.5 -85.5t208.5 85.5t86.5 206.5q0 122 -86.5 208t-208.5 86z M450 560q44 0 107 -21v-75h-10q-42 21 -97 23q-59 0 -88 -36q-31 -38 -31 -101q0 -62 32 -101q32 -38 87 -38q61 4 98 26h10v-76q-53 -22 -107 -22q-85 0 -137 51q-62 59 -62 163q0 89 52 145q52 62 146 62z" />
<glyph unicode="&#xaa;" horiz-adv-x="421" d="M131 464q0 -43 56 -43q33 0 74 23v77q-67 -9 -90 -14q-40 -7 -40 -43zM181 637q-47 0 -94 -22h-10v79q59 19 107 19q70 0 116 -28t45 -93v-240h-81v30q-40 -40 -96 -40q-56 1 -90 35.5t-32 86.5q1 45 29 74t72 35l115 17q0 25 -27 36t-54 11z" />
<glyph unicode="&#xab;" horiz-adv-x="631" d="M343 499l-162 -238l162 -239h-103l-175 239l175 238h103zM566 499l-162 -238l162 -239h-103l-175 239l175 238h103z" />
<glyph unicode="&#xac;" horiz-adv-x="624" d="M549 205h-91v190h-393v91h484v-281z" />
<glyph unicode="&#xad;" horiz-adv-x="481" d="M416 209h-351v107h351v-107z" />
<glyph unicode="&#xae;" horiz-adv-x="853" d="M427 711q149 0 255 -106t106 -256q0 -149 -106 -254.5t-255 -105.5q-150 0 -256 105.5t-106 254.5q0 150 106 256t256 106zM427 649q-124 0 -212 -88t-88 -212t88 -212t212 -88t212 88t88 212q0 125 -87.5 212.5t-212.5 87.5zM493 312l113 -160h-96l-102 149h-59v-149 h-77v329q0 33 23 56.5t56 23.5h61q4 0 16.5 -0.5t17.5 -0.5t15.5 -1t16.5 -2.5t15 -4.5t17 -7q30 -14 46.5 -45t16.5 -66q0 -75 -54 -109q-19 -11 -26 -13zM349 473v-103h69q25 0 46 9q32 15 29 56q0 35 -20 46q-15 11 -59 11h-47q-7 0 -12.5 -5.5t-5.5 -13.5z" />
<glyph unicode="&#xaf;" horiz-adv-x="438" d="M45 624v49h348v-49h-348z" />
<glyph unicode="&#xb0;" horiz-adv-x="497" d="M65 523q0 77 53.5 130.5t129.5 53.5t130 -53.5t54 -130.5q0 -76 -53.5 -129.5t-130.5 -53.5q-76 0 -129.5 53t-53.5 130zM144 523q0 -44 30 -74t74 -30q45 0 75 30t30 74q0 45 -30 75t-75 30q-44 0 -74 -30t-30 -75z" />
<glyph unicode="&#xb1;" horiz-adv-x="598" d="M344 124h-90v189h-189v90h189v189h90v-189h189v-90h-189v-189zM533 0h-468v90h468v-90z" />
<glyph unicode="&#xb2;" horiz-adv-x="300" d="M255 410v-58h-220v40l137 174q15 18 18 40q0 23 -15 34.5t-37 11.5q-54 0 -75 -23h-9v62q41 21 85 21q56 0 90 -38q25 -28 23 -68q0 -40 -26 -73l-106 -123h135z" />
<glyph unicode="&#xb3;" horiz-adv-x="318" d="M52 425q39 -23 85 -23q23 0 42.5 15.5t19.5 39.5q0 26 -21 41q-23 13 -63 13h-26v55h19q74 0 74 45q0 20 -16.5 32t-37.5 12q-43 0 -69 -18h-9v60q39 15 78 15q47 0 82.5 -26t35.5 -72q0 -23 -13.5 -44.5t-34.5 -26.5q29 -9 46 -32.5t19 -53.5q0 -51 -38 -81t-92 -30 q-42 0 -88 19v60h7z" />
<glyph unicode="&#xb4;" horiz-adv-x="279" d="M234 712l-113 -150h-76l86 150h103z" />
<glyph unicode="&#xb5;" horiz-adv-x="619" d="M204 14v-254h-124v764h124v-325q0 -41 20 -66.5t60 -25.5q67 0 130 43v374h125v-524h-122v36q-81 -46 -151 -46q-36 0 -62 24z" />
<glyph unicode="&#x3bc;" horiz-adv-x="619" d="M204 14v-254h-124v764h124v-325q0 -41 20 -66.5t60 -25.5q67 0 130 43v374h125v-524h-122v36q-81 -46 -151 -46q-36 0 -62 24z" />
<glyph unicode="&#xb6;" horiz-adv-x="575" d="M193 700h362v-87h-55v-853h-91v853h-99v-853h-91v563h-26q-78 0 -133 55.5t-55 132.5q0 79 55 134t133 55z" />
<glyph unicode="&#xb7;" horiz-adv-x="324" d="M229 416v-133h-134v133h134z" />
<glyph unicode="&#xb8;" horiz-adv-x="375" d="M143 45l70 -13l-11 -61q103 -17 108 -98q0 -53 -37 -83t-89 -30q-62 0 -119 39l44 59q36 -25 73 -25q50 0 50 38q0 27 -38.5 40.5t-72.5 9.5z" />
<glyph unicode="&#xb9;" horiz-adv-x="272" d="M197 352h-62v287l-52 -44l-38 44l59 51q24 22 50 22q43 -3 43 -51v-309z" />
<glyph unicode="&#xba;" horiz-adv-x="430" d="M45 527q0 86 46.5 135.5t118.5 49.5q76 0 125.5 -49.5t49.5 -135.5t-47 -135t-123 -49t-123 49t-47 135zM131 527q0 -52 21 -80.5t62 -28.5t63 29t22 80q0 52 -22 81t-63 29q-83 0 -83 -110z" />
<glyph unicode="&#xbb;" horiz-adv-x="631" d="M450 261l-162 238h103l175 -238l-175 -239h-103zM227 261l-162 238h103l175 -238l-175 -239h-103z" />
<glyph unicode="&#xbc;" horiz-adv-x="634" d="M492 282l-96 -145h96v145zM553 308v-171h36v-58h-36v-79h-61v79h-131q-24 0 -34 18q-11 18 2 36l133 202q14 23 46 23q20 0 32.5 -15t12.5 -35zM153 -13h-70l390 729h69zM197 352h-62v287l-52 -44l-38 44l59 51q24 22 50 22q43 -3 43 -51v-309z" />
<glyph unicode="&#xbd;" horiz-adv-x="675" d="M153 -13h-70l390 729h69zM197 352h-62v287l-52 -44l-38 44l59 51q24 22 50 22q43 -3 43 -51v-309zM630 58v-58h-220v40l137 174q15 18 18 40q0 23 -15 34.5t-37 11.5q-54 0 -75 -23h-9v62q41 21 85 21q56 0 90 -38q25 -28 23 -68q0 -40 -26 -73l-106 -123h135z" />
<glyph unicode="&#xbe;" horiz-adv-x="669" d="M527 282l-96 -145h96v145zM588 308v-171h36v-58h-36v-79h-61v79h-131q-24 0 -34 18q-11 18 2 36l133 202q14 23 46 23q20 0 32.5 -15t12.5 -35zM188 -13h-70l390 729h69zM52 425q39 -23 85 -23q23 0 42.5 15.5t19.5 39.5q0 26 -21 41q-23 13 -63 13h-26v55h19q74 0 74 45 q0 20 -16.5 32t-37.5 12q-43 0 -69 -18h-9v60q39 15 78 15q47 0 82.5 -26t35.5 -72q0 -23 -13.5 -44.5t-34.5 -26.5q29 -9 46 -32.5t19 -53.5q0 -51 -38 -81t-92 -30q-42 0 -88 19v60h7z" />
<glyph unicode="&#xbf;" horiz-adv-x="497" d="M256 357h117v-89q-4 -68 -26 -106q-5 -9 -11 -16.5t-14.5 -15t-12.5 -11.5t-16 -11t-14.5 -9t-18 -10l-17.5 -9q-56 -34 -56 -81q0 -35 30 -52t68 -17q81 0 137 50h20v-114q-91 -53 -170 -53q-82 0 -144 46q-68 55 -68 138q0 47 21 87.5t58 64.5q12 9 47 26.5t47 29.5 q23 21 23 76v76zM252 399v125h125v-125h-125z" />
<glyph unicode="&#xc0;" horiz-adv-x="682" d="M331 544l-94 -262h188zM-1 0l242 646q10 28 36 45t57 17t56 -17t36 -45l245 -646h-143l-60 163h-274l-61 -163h-134zM358 738l-111 150h101l87 -150h-77z" />
<glyph unicode="&#xc1;" horiz-adv-x="682" d="M331 544l-94 -262h188zM-1 0l242 646q10 28 36 45t57 17t56 -17t36 -45l245 -646h-143l-60 163h-274l-61 -163h-134zM435 888l-113 -150h-76l86 150h103z" />
<glyph unicode="&#xc2;" horiz-adv-x="682" d="M331 544l-94 -262h188zM-1 0l242 646q10 28 36 45t57 17t56 -17t36 -45l245 -646h-143l-60 163h-274l-61 -163h-134zM203 739l88 150h100l87 -150h-77l-61 81l-60 -81h-77z" />
<glyph unicode="&#xc3;" horiz-adv-x="682" d="M331 544l-94 -262h188zM-1 0l242 646q10 28 36 45t57 17t56 -17t36 -45l245 -646h-143l-60 163h-274l-61 -163h-134zM225 761l-65 35q45 78 118 79q37 0 77 -21q35 -25 55 -25q18 0 27.5 9.5t19.5 28.5l65 -35q-43 -79 -117 -79q-34 0 -72 18q-4 2 -14 8.5l-14.5 9.5 t-13.5 5.5t-17 2.5q-12 0 -21.5 -5.5t-14 -11.5t-13.5 -19z" />
<glyph unicode="&#xc4;" horiz-adv-x="682" d="M331 544l-94 -262h188zM-1 0l242 646q10 28 36 45t57 17t56 -17t36 -45l245 -646h-143l-60 163h-274l-61 -163h-134zM200 758v110h108v-110h-108zM372 758v110h110v-110h-110z" />
<glyph unicode="&#xc5;" horiz-adv-x="682" d="M331 544l-94 -262h188zM-1 0l242 646q10 28 36 45t57 17t56 -17t36 -45l245 -646h-143l-60 163h-274l-61 -163h-134zM340 910q40 0 68.5 -28t28.5 -68t-28.5 -67.5t-68.5 -27.5t-68 27.5t-28 67.5t28 68t68 28zM340 856q-17 0 -29.5 -12.5t-12.5 -29.5q0 -18 12.5 -30 t29.5 -12q18 0 30 12t12 30q0 17 -12 29.5t-30 12.5z" />
<glyph unicode="&#xc6;" horiz-adv-x="917" d="M444 570h-3l-169 -301h172v301zM449 700h453v-125h-292q-13 0 -22 -9t-9 -22v-117h231v-117h-231v-185h323v-125h-458v149h-238l-84 -149h-147l346 625q19 34 53.5 54.5t74.5 20.5z" />
<glyph unicode="&#xc7;" horiz-adv-x="599" d="M387 711q86 -1 184 -36v-128h-16q-75 41 -168 41q-94 2 -151 -65q-52 -65 -52 -173q0 -111 54 -175q57 -65 151 -63q92 0 167 41h18v-127q-98 -36 -184 -37q-149 0 -236 86q-109 103 -109 279q0 149 90 252q93 105 252 105zM367 45l70 -13l-11 -61q103 -17 108 -98 q0 -53 -37 -83t-89 -30q-62 0 -119 39l44 59q36 -25 73 -25q50 0 50 38q0 27 -38.5 40.5t-72.5 9.5z" />
<glyph unicode="&#xc8;" horiz-adv-x="590" d="M90 0v565q0 56 39.5 95.5t95.5 39.5h350v-122h-318q-13 0 -22.5 -9t-9.5 -22v-120h259v-117h-259v-188h350v-122h-485zM349 738l-111 150h101l87 -150h-77z" />
<glyph unicode="&#xc9;" horiz-adv-x="590" d="M90 565v-565h485v122h-350v188h259v117h-259v120q0 13 9.5 22t22.5 9h318v122h-350q-56 0 -95.5 -39.5t-39.5 -95.5zM498 888l-113 -150h-76l86 150h103z" />
<glyph unicode="&#xca;" horiz-adv-x="590" d="M90 0v565q0 56 39.5 95.5t95.5 39.5h350v-122h-318q-13 0 -22.5 -9t-9.5 -22v-120h259v-117h-259v-188h350v-122h-485zM207 739l88 150h100l87 -150h-77l-61 81l-60 -81h-77z" />
<glyph unicode="&#xcb;" horiz-adv-x="590" d="M90 0v565q0 56 39.5 95.5t95.5 39.5h350v-122h-318q-13 0 -22.5 -9t-9.5 -22v-120h259v-117h-259v-188h350v-122h-485zM224 758v110h108v-110h-108zM396 758v110h110v-110h-110z" />
<glyph unicode="&#xcc;" horiz-adv-x="325" d="M230 700v-700h-135v700h135zM179 738l-111 150h101l87 -150h-77z" />
<glyph unicode="&#xcd;" horiz-adv-x="325" d="M230 0v700h-135v-700h135zM257 888l-113 -150h-76l86 150h103z" />
<glyph unicode="&#xce;" horiz-adv-x="325" d="M230 700v-700h-135v700h135zM25 739l88 150h100l87 -150h-77l-61 81l-60 -81h-77z" />
<glyph unicode="&#xcf;" horiz-adv-x="325" d="M230 700v-700h-135v700h135zM22 758v110h108v-110h-108zM194 758v110h110v-110h-110z" />
<glyph unicode="&#xd0;" horiz-adv-x="719" d="M235 546v-126h171v-89h-171v-208h95q36 0 60 2t54.5 13.5t48.5 32.5q44 52 44 180q0 108 -31 159q-23 41 -63.5 54t-99.5 13h-76q-13 0 -22.5 -9t-9.5 -22zM100 0v331h-85v89h85v145q0 56 40 95.5t96 39.5h101q100 -1 168 -27.5t112 -94.5q59 -88 59 -222 q0 -153 -72 -250q-82 -106 -257 -106h-247z" />
<glyph unicode="&#xd1;" horiz-adv-x="764" d="M176 708q59 0 98 -59l273 -428v479h122v-700h-129l-323 507v-507h-122v616q0 37 22.5 64t58.5 28zM266 761l-65 35q45 78 118 79q37 0 77 -21q35 -25 55 -25q18 0 27.5 9.5t19.5 28.5l65 -35q-43 -79 -117 -79q-34 0 -72 18q-4 2 -14 8.5l-14.5 9.5t-13.5 5.5t-17 2.5 q-12 0 -21.5 -5.5t-14 -11.5t-13.5 -19z" />
<glyph unicode="&#xd2;" horiz-adv-x="754" d="M46 350q0 163 92.5 262t238.5 99t239 -99t93 -262t-93 -262t-239 -99t-238.5 99t-92.5 262zM185 350q0 -110 52 -174t140 -64t140.5 64t52.5 174q0 101 -53.5 170t-139.5 69q-88 0 -140 -64.5t-52 -174.5zM394 738l-111 150h101l87 -150h-77z" />
<glyph unicode="&#xd3;" horiz-adv-x="754" d="M46 350q0 163 92.5 262t238.5 99t239 -99t93 -262t-93 -262t-239 -99t-238.5 99t-92.5 262zM185 350q0 -110 52 -174t140 -64t140.5 64t52.5 174q0 101 -53.5 170t-139.5 69q-88 0 -140 -64.5t-52 -174.5zM510 888l-113 -150h-76l86 150h103z" />
<glyph unicode="&#xd4;" horiz-adv-x="754" d="M46 350q0 163 92.5 262t238.5 99t239 -99t93 -262t-93 -262t-239 -99t-238.5 99t-92.5 262zM185 350q0 -110 52 -174t140 -64t140.5 64t52.5 174q0 101 -53.5 170t-139.5 69q-88 0 -140 -64.5t-52 -174.5zM239 739l88 150h100l87 -150h-77l-61 81l-60 -81h-77z" />
<glyph unicode="&#xd5;" horiz-adv-x="754" d="M46 350q0 163 92.5 262t238.5 99t239 -99t93 -262t-93 -262t-239 -99t-238.5 99t-92.5 262zM185 350q0 -110 52 -174t140 -64t140.5 64t52.5 174q0 101 -53.5 170t-139.5 69q-88 0 -140 -64.5t-52 -174.5zM261 761l-65 35q45 78 118 79q37 0 77 -21q35 -25 55 -25 q18 0 27.5 9.5t19.5 28.5l65 -35q-43 -79 -117 -79q-34 0 -72 18q-4 2 -14 8.5l-14.5 9.5t-13.5 5.5t-17 2.5q-12 0 -21.5 -5.5t-14 -11.5t-13.5 -19z" />
<glyph unicode="&#xd6;" horiz-adv-x="754" d="M46 350q0 163 92.5 262t238.5 99t239 -99t93 -262t-93 -262t-239 -99t-238.5 99t-92.5 262zM185 350q0 -110 52 -174t140 -64t140.5 64t52.5 174q0 101 -53.5 170t-139.5 69q-88 0 -140 -64.5t-52 -174.5zM236 758v110h108v-110h-108zM408 758v110h110v-110h-110z" />
<glyph unicode="&#xd7;" horiz-adv-x="591" d="M506 199l-63 -63l-147 147l-147 -147l-64 65l147 146l-147 146l63 63l146 -146l147 146l64 -64l-146 -146z" />
<glyph unicode="&#xd8;" horiz-adv-x="791" d="M751 651l-82 -82q60 -92 60 -219q0 -163 -93 -262t-239 -99q-134 0 -224 84l-78 -78l-55 56l83 83q-57 92 -57 216q0 163 92.5 262t238.5 99q134 0 222 -82l78 78zM224 235l300 299q-53 55 -127 55q-88 0 -140 -64.5t-52 -174.5q0 -63 19 -115zM567 467l-301 -301 q51 -54 131 -54q88 0 140.5 64t52.5 174q0 63 -23 117z" />
<glyph unicode="&#xd9;" horiz-adv-x="717" d="M510 261v439h122v-397q0 -74 -10 -123.5t-43 -93.5q-37 -50 -96.5 -73.5t-124.5 -23.5q-72 0 -133.5 29t-96.5 83q-43 66 -43 202v397h135v-438q0 -70 26 -107q36 -44 118 -44q80 0 120 52q26 38 26 98zM375 738l-111 150h101l87 -150h-77z" />
<glyph unicode="&#xda;" horiz-adv-x="717" d="M510 700v-439q0 -60 -26 -98q-40 -52 -120 -52q-82 0 -118 44q-26 37 -26 107v438h-135v-397q0 -136 43 -202q35 -54 96.5 -83t133.5 -29q65 0 124.5 23.5t96.5 73.5q33 44 43 93.5t10 123.5v397h-122zM479 888l-113 -150h-76l86 150h103z" />
<glyph unicode="&#xdb;" horiz-adv-x="717" d="M510 261v439h122v-397q0 -74 -10 -123.5t-43 -93.5q-37 -50 -96.5 -73.5t-124.5 -23.5q-72 0 -133.5 29t-96.5 83q-43 66 -43 202v397h135v-438q0 -70 26 -107q36 -44 118 -44q80 0 120 52q26 38 26 98zM221 739l88 150h100l87 -150h-77l-61 81l-60 -81h-77z" />
<glyph unicode="&#xdc;" horiz-adv-x="717" d="M510 261v439h122v-397q0 -74 -10 -123.5t-43 -93.5q-37 -50 -96.5 -73.5t-124.5 -23.5q-72 0 -133.5 29t-96.5 83q-43 66 -43 202v397h135v-438q0 -70 26 -107q36 -44 118 -44q80 0 120 52q26 38 26 98zM217 758v110h108v-110h-108zM389 758v110h110v-110h-110z" />
<glyph unicode="&#xdd;" horiz-adv-x="600" d="M456 700h-1h140l-227 -432v-268h-135v268l-228 432h152l149 -305zM394 888l-113 -150h-76l86 150h103z" />
<glyph unicode="&#xde;" horiz-adv-x="618" d="M227 0h-132v700h132v-126h79q10 -1 42 -2t45.5 -2.5t37.5 -7t44 -15.5q52 -27 80 -80t27 -114q0 -126 -92 -185q-66 -41 -182 -41h-81v-127zM227 454v-208h89q49 0 79 16q52 23 49 95q0 57 -34 80q-7 5 -16 8.5t-15 5t-19 2.5t-17 1h-19h-16h-81z" />
<glyph unicode="&#xdf;" horiz-adv-x="570" d="M269 446q104 2 104 92q-2 82 -82 83q-38 1 -62.5 -27t-26.5 -70v-524h-127v532q4 100 62 151q60 53 158 51q87 1 148.5 -50t61.5 -144q0 -48 -29.5 -89.5t-67.5 -53.5q61 -20 91.5 -69.5t30.5 -117.5q0 -93 -69 -157.5t-163 -64.5q-35 0 -62 8v110h20q16 -6 35 -6 q50 1 79 34t29 86q1 52 -37.5 81.5t-91.5 32.5h-11v112h10z" />
<glyph unicode="&#xe0;" horiz-adv-x="563" d="M169 167q0 -34 22 -50.5t57 -16.5q54 0 113 36v118q-19 -4 -63 -10t-68 -11q-61 -12 -61 -66zM366 0v48q-57 -60 -141 -60q-78 0 -130 48t-54 124q-1 69 43 115t108 55l172 25q-3 34 -43 51.5t-76 17.5q-75 0 -139 -31h-14v116q93 26 155 26q101 0 169.5 -42.5 t71.5 -134.5v-358h-122zM298 562l-111 150h101l87 -150h-77z" />
<glyph unicode="&#xe1;" horiz-adv-x="563" d="M169 167q0 54 61 66q24 5 68 11t63 10v-118q-59 -36 -113 -36q-35 0 -57 16.5t-22 50.5zM366 48v-48h122v358q-3 92 -71.5 134.5t-169.5 42.5q-62 0 -155 -26v-116h14q64 31 139 31q36 0 76 -17.5t43 -51.5l-172 -25q-64 -9 -108 -55t-43 -115q2 -76 54 -124t130 -48 q84 0 141 60zM376 712l-113 -150h-76l86 150h103z" />
<glyph unicode="&#xe2;" horiz-adv-x="563" d="M169 167q0 -34 22 -50.5t57 -16.5q54 0 113 36v118q-19 -4 -63 -10t-68 -11q-61 -12 -61 -66zM366 0v48q-57 -60 -141 -60q-78 0 -130 48t-54 124q-1 69 43 115t108 55l172 25q-3 34 -43 51.5t-76 17.5q-75 0 -139 -31h-14v116q93 26 155 26q101 0 169.5 -42.5 t71.5 -134.5v-358h-122zM144 563l88 150h100l87 -150h-77l-61 81l-60 -81h-77z" />
<glyph unicode="&#xe3;" horiz-adv-x="563" d="M169 167q0 -34 22 -50.5t57 -16.5q54 0 113 36v118q-19 -4 -63 -10t-68 -11q-61 -12 -61 -66zM366 0v48q-57 -60 -141 -60q-78 0 -130 48t-54 124q-1 69 43 115t108 55l172 25q-3 34 -43 51.5t-76 17.5q-75 0 -139 -31h-14v116q93 26 155 26q101 0 169.5 -42.5 t71.5 -134.5v-358h-122zM165 585l-65 35q45 78 118 79q37 0 77 -21q35 -25 55 -25q18 0 27.5 9.5t19.5 28.5l65 -35q-43 -79 -117 -79q-34 0 -72 18q-4 2 -14 8.5l-14.5 9.5t-13.5 5.5t-17 2.5q-12 0 -21.5 -5.5t-14 -11.5t-13.5 -19z" />
<glyph unicode="&#xe4;" horiz-adv-x="563" d="M169 167q0 -34 22 -50.5t57 -16.5q54 0 113 36v118q-19 -4 -63 -10t-68 -11q-61 -12 -61 -66zM366 0v48q-57 -60 -141 -60q-78 0 -130 48t-54 124q-1 69 43 115t108 55l172 25q-3 34 -43 51.5t-76 17.5q-75 0 -139 -31h-14v116q93 26 155 26q101 0 169.5 -42.5 t71.5 -134.5v-358h-122zM140 582v110h108v-110h-108zM312 582v110h110v-110h-110z" />
<glyph unicode="&#xe5;" horiz-adv-x="563" d="M169 167q0 54 61 66q24 5 68 11t63 10v-118q-59 -36 -113 -36q-35 0 -57 16.5t-22 50.5zM366 48v-48h122v358q-3 92 -71.5 134.5t-169.5 42.5q-62 0 -155 -26v-116h14q64 31 139 31q36 0 76 -17.5t43 -51.5l-172 -25q-64 -9 -108 -55t-43 -115q2 -76 54 -124t130 -48 q84 0 141 60zM281 734q40 0 68.5 -28t28.5 -68t-28.5 -67.5t-68.5 -27.5t-68 27.5t-28 67.5t27.5 68t68.5 28zM281 680q-17 0 -29.5 -12.5t-12.5 -29.5q0 -18 12.5 -30t29.5 -12q18 0 30 12t12 30q0 17 -12 29.5t-30 12.5z" />
<glyph unicode="&#xe6;" horiz-adv-x="867" d="M361 136q-22 49 -24 114q-11 -2 -48.5 -7.5t-58.5 -9.5q-61 -12 -61 -66q0 -34 22 -50.5t57 -16.5q54 0 113 36zM430 468q55 67 152 67q152 0 208 -132q30 -73 26 -191h-343q9 -58 55.5 -87.5t106.5 -27.5q86 2 138 33h16v-119q-74 -22 -164 -22q-120 0 -199 72 q-37 -29 -91 -50.5t-110 -22.5q-78 -1 -130 47.5t-54 124.5q-1 69 43 115t108 55l172 25q-3 34 -43 51.5t-76 17.5q-75 0 -139 -31h-14v116q93 26 155 26q123 0 183 -67zM584 425q-48 0 -76.5 -30.5t-33.5 -77.5h213q-10 107 -103 108z" />
<glyph unicode="&#xe7;" horiz-adv-x="486" d="M455 387h-16q-44 35 -137 35q-68 0 -101 -44q-30 -41 -30 -117q0 -55 22 -95q35 -64 107 -64q87 0 141 30h15v-108q-71 -35 -158 -35q-63 0 -118.5 29t-90.5 79q-49 69 -49 165q0 118 67 193q70 80 187 80q75 0 161 -35v-113zM282 45l70 -13l-11 -61q103 -17 108 -98 q0 -53 -37 -83t-89 -30q-62 0 -119 39l44 59q36 -25 73 -25q50 0 50 38q0 27 -38.5 40.5t-72.5 9.5z" />
<glyph unicode="&#xe8;" horiz-adv-x="570" d="M287 425q-48 0 -76.5 -30.5t-33.5 -77.5h213q-10 107 -103 108zM176 212q9 -58 55.5 -87.5t106.5 -27.5q86 2 138 33h16v-119q-74 -22 -164 -22q-131 0 -208 70q-80 73 -80 200q3 110 58 186q69 90 187 90q73 0 127 -33.5t81 -98.5q30 -73 26 -191h-343zM302 562 l-111 150h101l87 -150h-77z" />
<glyph unicode="&#xe9;" horiz-adv-x="570" d="M287 425q-48 0 -76.5 -30.5t-33.5 -77.5h213q-10 107 -103 108zM176 212q9 -58 55.5 -87.5t106.5 -27.5q86 2 138 33h16v-119q-74 -22 -164 -22q-131 0 -208 70q-80 73 -80 200q3 110 58 186q69 90 187 90q73 0 127 -33.5t81 -98.5q30 -73 26 -191h-343zM403 712 l-113 -150h-76l86 150h103z" />
<glyph unicode="&#xea;" horiz-adv-x="570" d="M287 425q-48 0 -76.5 -30.5t-33.5 -77.5h213q-10 107 -103 108zM176 212q9 -58 55.5 -87.5t106.5 -27.5q86 2 138 33h16v-119q-74 -22 -164 -22q-131 0 -208 70q-80 73 -80 200q3 110 58 186q69 90 187 90q73 0 127 -33.5t81 -98.5q30 -73 26 -191h-343zM147 563l88 150 h100l87 -150h-77l-61 81l-60 -81h-77z" />
<glyph unicode="&#xeb;" horiz-adv-x="570" d="M287 425q-48 0 -76.5 -30.5t-33.5 -77.5h213q-10 107 -103 108zM176 212q9 -58 55.5 -87.5t106.5 -27.5q86 2 138 33h16v-119q-74 -22 -164 -22q-131 0 -208 70q-80 73 -80 200q3 110 58 186q69 90 187 90q73 0 127 -33.5t81 -98.5q30 -73 26 -191h-343zM144 582v110h108 v-110h-108zM316 582v110h110v-110h-110z" />
<glyph unicode="&#xec;" horiz-adv-x="287" d="M207 524v-524h-127v524h127zM161 562l-111 150h101l87 -150h-77z" />
<glyph unicode="&#xed;" horiz-adv-x="287" d="M207 524v-524h-127v524h127zM238 712l-113 -150h-76l86 150h103z" />
<glyph unicode="&#xee;" horiz-adv-x="287" d="M207 524v-524h-127v524h127zM6 563l88 150h100l87 -150h-77l-61 81l-60 -81h-77z" />
<glyph unicode="&#xef;" horiz-adv-x="287" d="M207 524v-524h-127v524h127zM3 582v110h108v-110h-108zM175 582v110h110v-110h-110z" />
<glyph unicode="&#xf0;" horiz-adv-x="616" d="M278 601l-146 -53l-24 66l104 38q-86 56 -153 79h212q30 -18 54 -36l104 37l26 -67l-68 -25q79 -75 126.5 -176.5t46.5 -210.5q0 -106 -70.5 -184t-182.5 -78q-71 0 -128.5 31t-90.5 88q-38 66 -38 146q0 107 56 183q68 81 180 90q56 0 78 -20q-30 46 -86 92zM304 419 q-62 0 -95 -47.5t-33 -114.5q0 -62 35.5 -106.5t96.5 -44.5q60 0 93.5 46.5t33.5 110.5t-33.5 110t-97.5 46z" />
<glyph unicode="&#xf1;" horiz-adv-x="618" d="M356 535q83 0 135 -54t52 -141v-340h-127v327q1 40 -19 65.5t-60 25.5q-67 0 -130 -43v-375h-127v524h123v-34q90 45 153 45zM193 585l-65 35q45 78 118 79q37 0 77 -21q35 -25 55 -25q18 0 27.5 9.5t19.5 28.5l65 -35q-43 -79 -117 -79q-34 0 -72 18q-4 2 -14 8.5 l-14.5 9.5t-13.5 5.5t-17 2.5q-12 0 -21.5 -5.5t-14 -11.5t-13.5 -19z" />
<glyph unicode="&#xf2;" d="M40 262q0 124 69.5 198.5t181.5 74.5t180.5 -74.5t68.5 -198.5t-68.5 -198.5t-180.5 -74.5t-181.5 74.5t-69.5 198.5zM171 262q0 -73 32.5 -116.5t86.5 -43.5t86.5 43.5t32.5 116.5t-32.5 116.5t-86.5 43.5t-86.5 -43.5t-32.5 -116.5zM307 562l-111 150h101l87 -150h-77z " />
<glyph unicode="&#xf3;" d="M40 262q0 124 69.5 198.5t181.5 74.5t180.5 -74.5t68.5 -198.5t-68.5 -198.5t-180.5 -74.5t-181.5 74.5t-69.5 198.5zM171 262q0 -73 32.5 -116.5t86.5 -43.5t86.5 43.5t32.5 116.5t-32.5 116.5t-86.5 43.5t-86.5 -43.5t-32.5 -116.5zM385 712l-113 -150h-76l86 150h103z " />
<glyph unicode="&#xf4;" d="M40 262q0 124 69.5 198.5t181.5 74.5t180.5 -74.5t68.5 -198.5t-68.5 -198.5t-180.5 -74.5t-181.5 74.5t-69.5 198.5zM171 262q0 -73 32.5 -116.5t86.5 -43.5t86.5 43.5t32.5 116.5t-32.5 116.5t-86.5 43.5t-86.5 -43.5t-32.5 -116.5zM153 563l88 150h100l87 -150h-77 l-61 81l-60 -81h-77z" />
<glyph unicode="&#xf5;" d="M40 262q0 124 69.5 198.5t181.5 74.5t180.5 -74.5t68.5 -198.5t-68.5 -198.5t-180.5 -74.5t-181.5 74.5t-69.5 198.5zM171 262q0 -73 32.5 -116.5t86.5 -43.5t86.5 43.5t32.5 116.5t-32.5 116.5t-86.5 43.5t-86.5 -43.5t-32.5 -116.5zM174 585l-65 35q45 78 118 79 q37 0 77 -21q35 -25 55 -25q18 0 27.5 9.5t19.5 28.5l65 -35q-43 -79 -117 -79q-34 0 -72 18q-4 2 -14 8.5l-14.5 9.5t-13.5 5.5t-17 2.5q-12 0 -21.5 -5.5t-14 -11.5t-13.5 -19z" />
<glyph unicode="&#xf6;" d="M40 262q0 124 69.5 198.5t181.5 74.5t180.5 -74.5t68.5 -198.5t-68.5 -198.5t-180.5 -74.5t-181.5 74.5t-69.5 198.5zM171 262q0 -73 32.5 -116.5t86.5 -43.5t86.5 43.5t32.5 116.5t-32.5 116.5t-86.5 43.5t-86.5 -43.5t-32.5 -116.5zM149 582v110h108v-110h-108z M321 582v110h110v-110h-110z" />
<glyph unicode="&#xf7;" horiz-adv-x="597" d="M365 134v-134h-133v134h133zM365 524v-132h-133v132h133zM532 217h-467v89h467v-89z" />
<glyph unicode="&#xf8;" horiz-adv-x="612" d="M40 47l60 60q-38 67 -38 155q0 124 69.5 198.5t181.5 74.5q94 0 160 -55l49 49l50 -51l-52 -52q42 -68 42 -164q0 -124 -68.5 -198.5t-180.5 -74.5q-101 0 -168 61l-54 -54zM422 328l-189 -190q31 -36 79 -36q54 0 86.5 43.5t32.5 116.5q0 36 -9 66zM199 206l186 186 q-32 30 -73 30q-54 0 -86.5 -43.5t-32.5 -116.5q0 -30 6 -56z" />
<glyph unicode="&#xf9;" horiz-adv-x="585" d="M243 -12q-82 0 -134.5 56t-52.5 139v341h127v-328q-1 -40 19 -65.5t60 -25.5q67 0 130 43v376h127v-524h-123v33q-90 -45 -153 -45zM309 562l-111 150h101l87 -150h-77z" />
<glyph unicode="&#xfa;" horiz-adv-x="585" d="M243 -12q-82 0 -134.5 56t-52.5 139v341h127v-328q-1 -40 19 -65.5t60 -25.5q67 0 130 43v376h127v-524h-123v33q-90 -45 -153 -45zM387 712l-113 -150h-76l86 150h103z" />
<glyph unicode="&#xfb;" horiz-adv-x="585" d="M243 -12q-82 0 -134.5 56t-52.5 139v341h127v-328q-1 -40 19 -65.5t60 -25.5q67 0 130 43v376h127v-524h-123v33q-90 -45 -153 -45zM155 563l88 150h100l87 -150h-77l-61 81l-60 -81h-77z" />
<glyph unicode="&#xfc;" horiz-adv-x="585" d="M243 -12q-82 0 -134.5 56t-52.5 139v341h127v-328q-1 -40 19 -65.5t60 -25.5q67 0 130 43v376h127v-524h-123v33q-90 -45 -153 -45zM151 582v110h108v-110h-108zM323 582v110h110v-110h-110z" />
<glyph unicode="&#xfd;" horiz-adv-x="554" d="M293 172l128 352h118l-231 -637q-28 -73 -81 -100t-148 -27h-23v110q79 -1 107 9.5t46 59.5l24 66l-228 519h139zM371 712l-113 -150h-76l86 150h103z" />
<glyph unicode="&#xfe;" horiz-adv-x="576" d="M200 401v-281q51 -12 92 -12q64 0 95 46q23 38 23 108q0 69 -23 106q-32 46 -95 46q-36 0 -92 -13zM481 449q54 -67 54 -180q0 -127 -54 -196q-62 -77 -174 -82q-63 0 -107 26v-251h-120v965h120v-226q46 27 107 27q112 -5 174 -83z" />
<glyph unicode="&#xff;" horiz-adv-x="554" d="M293 172l128 352h118l-231 -637q-28 -73 -81 -100t-148 -27h-23v110q79 -1 107 9.5t46 59.5l24 66l-228 519h139zM148 582v110h108v-110h-108zM320 582v110h110v-110h-110z" />
<glyph unicode="&#x152;" horiz-adv-x="990" d="M672 700h303v-125h-291q-13 0 -22.5 -9t-9.5 -22v-117h232v-117h-232v-186h323v-124h-456v51q-68 -62 -172 -62q-130 2 -213 97q-90 104 -88 260q-2 152 76 254q39 52 101 81.5t124 29.5q57 0 109.5 -21t85.5 -61q20 38 49 54.5t81 16.5zM353 112q47 2 81 25t51.5 59.5 t25.5 76t8 83.5q-5 99 -44.5 166t-124.5 66q-45 0 -79 -24t-51.5 -62t-26 -78t-8.5 -81q0 -91 43.5 -161t124.5 -70z" />
<glyph unicode="&#x153;" horiz-adv-x="932" d="M171 262q0 -73 32.5 -116.5t86.5 -43.5t86.5 43.5t32.5 116.5t-32.5 116.5t-86.5 43.5t-86.5 -43.5t-32.5 -116.5zM649 425q-48 0 -76.5 -30.5t-33.5 -77.5h213q-10 107 -103 108zM475 75q-61 -86 -184 -86q-112 0 -181.5 74.5t-69.5 198.5t69.5 198.5t181.5 74.5 q115 0 183 -86q64 86 173 86q73 0 127 -33.5t81 -98.5q30 -73 26 -191h-343q9 -58 55.5 -87.5t106.5 -27.5q86 2 138 33h16v-119q-74 -22 -164 -22q-135 0 -215 86z" />
<glyph unicode="&#x178;" horiz-adv-x="600" d="M456 700h-1h140l-227 -432v-268h-135v268l-228 432h152l149 -305zM159 758v110h108v-110h-108zM331 758v110h110v-110h-110z" />
<glyph unicode="&#x2c6;" horiz-adv-x="365" d="M45 563l88 150h100l87 -150h-77l-61 81l-60 -81h-77z" />
<glyph unicode="&#x2dc;" horiz-adv-x="452" d="M110 585l-65 35q45 78 118 79q37 0 77 -21q35 -25 55 -25q18 0 27.5 9.5t19.5 28.5l65 -35q-43 -79 -117 -79q-34 0 -72 18q-4 2 -14 8.5l-14.5 9.5t-13.5 5.5t-17 2.5q-12 0 -21.5 -5.5t-14 -11.5t-13.5 -19z" />
<glyph unicode="&#x2013;" horiz-adv-x="515" d="M510 215h-505v91h505v-91z" />
<glyph unicode="&#x2014;" horiz-adv-x="983" d="M978 215h-973v91h973v-91z" />
<glyph unicode="&#x2018;" horiz-adv-x="331" d="M266 700l-74 -281h-127l123 281h78z" />
<glyph unicode="&#x2019;" horiz-adv-x="331" d="M65 419l74 281h127l-123 -281h-78z" />
<glyph unicode="&#x201a;" horiz-adv-x="331" d="M65 -148l74 281h127l-123 -281h-78z" />
<glyph unicode="&#x201c;" horiz-adv-x="524" d="M459 700l-74 -281h-127l123 281h78zM266 700l-74 -281h-127l123 281h78z" />
<glyph unicode="&#x201d;" horiz-adv-x="524" d="M65 419l74 281h127l-123 -281h-78zM258 419l74 281h127l-123 -281h-78z" />
<glyph unicode="&#x201e;" horiz-adv-x="524" d="M65 -148l74 281h127l-123 -281h-78zM258 -148l74 281h127l-123 -281h-78z" />
<glyph unicode="&#x2022;" horiz-adv-x="320" d="M65 348q0 39 28 67t67 28t67 -28t28 -67t-28 -67t-67 -28t-67 28t-28 67z" />
<glyph unicode="&#x2026;" horiz-adv-x="932" d="M229 133v-133h-134v133h134zM533 133v-133h-134v133h134zM837 133v-133h-134v133h134z" />
<glyph unicode="&#x2039;" horiz-adv-x="408" d="M343 499l-162 -238l162 -239h-103l-175 239l175 238h103z" />
<glyph unicode="&#x203a;" horiz-adv-x="408" d="M227 261l-162 238h103l175 -238l-175 -239h-103z" />
<glyph unicode="&#x20ac;" horiz-adv-x="624" d="M423 -11q-73 0 -135.5 32t-100.5 90q-36 55 -53 132h-94l16 77h68q0 52 1 62h-58l15 78h52q17 75 49 123q80 128 227 128q103 0 189 -46l-23 -116h-20q-56 39 -132 39q-57 0 -95 -36.5t-55 -91.5h286l-16 -78h-282q-4 -38 0 -62h270l-14 -77h-244q17 -58 55.5 -94.5 t93.5 -36.5q83 0 137 45h22v-129q-78 -39 -159 -39z" />
<glyph unicode="&#x2122;" horiz-adv-x="875" d="M625 292h-75l-88 267l-15 -267h-71l19 358q2 21 15 36t34 16q20 1 36.5 -11.5t23.5 -30.5l85 -260l82 260q16 42 55 42q24 0 39 -14t16 -38l19 -358h-77l-10 273zM147 625v-333h76v333h112v74h-300v-74h112z" />
<glyph unicode="&#xe000;" horiz-adv-x="525" d="M0 525h525v-525h-525v525z" />
<glyph unicode="&#xfb01;" horiz-adv-x="574" d="M494 700v-125h-125v125h125zM188 524h305v-524h-127v414h-178v-414h-127v414h-56v110h56v15q0 97 44 145.5t137 48.5q19 0 45 -4.5t42.5 -9t16.5 -5.5v-112h-17q-35 19 -74 19q-28 0 -47.5 -16.5t-19.5 -48.5v-32z" />
<glyph unicode="&#xfb02;" horiz-adv-x="618" d="M467 674v-511q0 -62 69 -62q28 -1 76 23h16v-112q-67 -23 -107 -23q-181 0 -181 196v417q-38 21 -85 19q-28 0 -47.5 -16.5t-19.5 -48.5v-32h123v-110h-123v-414h-127v414h-56v110h56v15q0 95 51 144.5t146 49.5q46 0 108.5 -17t100.5 -42z" />
<glyph unicode="&#xfb03;" horiz-adv-x="976" d="M895 524v-524h-127v524h127zM896 700v-125h-128v125h128zM542 524h133v-110h-133v-414h-127v414h-56v110h56v15q0 97 44 145.5t137 48.5q25 0 107 -19v-112h-17q-37 20 -77 19q-28 0 -47.5 -16.5t-19.5 -48.5v-32zM198 524h133v-110h-133v-414h-127v414h-56v110h56v15 q0 97 44 145.5t137 48.5q25 0 107 -19v-112h-17q-37 20 -77 19q-28 0 -47.5 -16.5t-19.5 -48.5v-32z" />
<glyph unicode="&#xfb04;" horiz-adv-x="1041" d="M890 732v-569q0 -62 69 -62q28 -1 76 23h16v-112q-67 -23 -107 -23q-181 0 -181 196v547h127zM542 524h133v-110h-133v-414h-127v414h-56v110h56v15q0 97 44 145.5t137 48.5q25 0 107 -19v-112h-17q-37 20 -77 19q-28 0 -47.5 -16.5t-19.5 -48.5v-32zM198 524h133v-110 h-133v-414h-127v414h-56v110h56v15q0 97 44 145.5t137 48.5q25 0 107 -19v-112h-17q-37 20 -77 19q-28 0 -47.5 -16.5t-19.5 -48.5v-32z" />
</font>
</defs>
</svg>
